<svg xmlns="http://www.w3.org/2000/svg" width="1200" height="420" viewBox="0 0 1200 420" fill="none">
  <defs>
    <linearGradient id="bo-acetate" x1="0" y1="0" x2="1" y2="1">
      <stop stop-color="#2A211D"/>
      <stop offset=".16" stop-color="#87552F"/>
      <stop offset=".3" stop-color="#3B281E"/>
      <stop offset=".48" stop-color="#AC7140"/>
      <stop offset=".65" stop-color="#442C20"/>
      <stop offset=".82" stop-color="#71452C"/>
      <stop offset="1" stop-color="#241A16"/>
    </linearGradient>
    <linearGradient id="bo-lens" x1="0" y1="0" x2="1" y2="1">
      <stop stop-color="#E4F0EC" stop-opacity=".15"/>
      <stop offset=".52" stop-color="#FFF" stop-opacity=".018"/>
      <stop offset="1" stop-color="#BED1CA" stop-opacity=".1"/>
    </linearGradient>
    <filter id="bo-shadow" x="-20%" y="-20%" width="140%" height="160%">
      <feDropShadow dx="0" dy="8" stdDeviation="6" flood-color="#000" flood-opacity=".3"/>
    </filter>
  </defs>

  <g filter="url(#bo-shadow)">
    <path d="M180 191C180 122 246 88 350 88C454 88 520 122 520 191C520 281 456 337 350 337C244 337 180 281 180 191Z" fill="url(#bo-lens)" stroke="url(#bo-acetate)" stroke-width="20"/>
    <path d="M1020 191C1020 122 954 88 850 88C746 88 680 122 680 191C680 281 744 337 850 337C956 337 1020 281 1020 191Z" fill="url(#bo-lens)" stroke="url(#bo-acetate)" stroke-width="20"/>

    <path d="M520 189C548 147 573 132 600 132C627 132 652 147 680 189" stroke="url(#bo-acetate)" stroke-width="18" stroke-linecap="round"/>
    <path d="M545 174C561 148 579 139 600 139C621 139 639 148 655 174C639 164 621 161 600 161C579 161 561 164 545 174Z" fill="#F2EEE6" fill-opacity=".86"/>

    <path d="M180 183L57 151C37 146 24 154 22 171" stroke="url(#bo-acetate)" stroke-width="18" stroke-linecap="round"/>
    <path d="M1020 183L1143 151C1163 146 1176 154 1178 171" stroke="url(#bo-acetate)" stroke-width="18" stroke-linecap="round"/>
    <circle cx="183" cy="183" r="8" fill="#C69664"/>
    <circle cx="1017" cy="183" r="8" fill="#C69664"/>

    <path d="M205 152C247 111 296 101 351 101C411 101 457 111 493 143" stroke="#F3D4B2" stroke-opacity=".27" stroke-width="4" stroke-linecap="round"/>
    <path d="M995 152C953 111 904 101 849 101C789 101 743 111 707 143" stroke="#F3D4B2" stroke-opacity=".27" stroke-width="4" stroke-linecap="round"/>
  </g>
</svg>
