<svg xmlns="http://www.w3.org/2000/svg" width="1200" height="420" viewBox="0 0 1200 420" fill="none">
  <defs>
    <linearGradient id="cm-acetate" x1="0" y1="0" x2="1" y2="1">
      <stop stop-color="#17120F"/>
      <stop offset=".22" stop-color="#56331F"/>
      <stop offset=".4" stop-color="#17120F"/>
      <stop offset=".62" stop-color="#815637"/>
      <stop offset=".8" stop-color="#251812"/>
      <stop offset="1" stop-color="#684126"/>
    </linearGradient>
    <linearGradient id="cm-metal" x1="0" y1="0" x2="0" y2="1">
      <stop stop-color="#F4D99B"/>
      <stop offset=".24" stop-color="#9F793D"/>
      <stop offset=".52" stop-color="#E9CA83"/>
      <stop offset=".8" stop-color="#745224"/>
      <stop offset="1" stop-color="#D3AF64"/>
    </linearGradient>
    <linearGradient id="cm-lens" x1="0" y1="0" x2="1" y2="1">
      <stop stop-color="#E8F6F1" stop-opacity=".15"/>
      <stop offset=".45" stop-color="#FFFFFF" stop-opacity=".025"/>
      <stop offset="1" stop-color="#BFD8D1" stop-opacity=".1"/>
    </linearGradient>
    <filter id="cm-shadow" x="-20%" y="-20%" width="140%" height="160%">
      <feDropShadow dx="0" dy="7" stdDeviation="6" flood-color="#000" flood-opacity=".28"/>
    </filter>
  </defs>

  <g filter="url(#cm-shadow)">
    <path d="M178 174C222 133 286 116 357 118C430 120 490 142 526 178L517 205C476 168 423 151 356 150C286 149 234 164 191 202Z" fill="url(#cm-acetate)"/>
    <path d="M1022 174C978 133 914 116 843 118C770 120 710 142 674 178L683 205C724 168 777 151 844 150C914 149 966 164 1009 202Z" fill="url(#cm-acetate)"/>
    <path d="M185 188C193 149 248 126 350 126C452 126 509 152 520 193V224C520 286 464 326 350 326C236 326 180 286 180 224Z" fill="url(#cm-lens)" stroke="url(#cm-metal)" stroke-width="8"/>
    <path d="M1015 188C1007 149 952 126 850 126C748 126 691 152 680 193V224C680 286 736 326 850 326C964 326 1020 286 1020 224Z" fill="url(#cm-lens)" stroke="url(#cm-metal)" stroke-width="8"/>

    <path d="M520 196C548 167 575 154 600 154C625 154 652 167 680 196" stroke="url(#cm-metal)" stroke-width="12" stroke-linecap="round"/>
    <path d="M526 183C550 161 576 151 600 151C624 151 650 161 674 183" stroke="#F3D691" stroke-opacity=".5" stroke-width="3" stroke-linecap="round"/>

    <path d="M179 183L58 152C38 147 25 153 22 167" stroke="url(#cm-acetate)" stroke-width="16" stroke-linecap="round"/>
    <path d="M1021 183L1142 152C1162 147 1175 153 1178 167" stroke="url(#cm-acetate)" stroke-width="16" stroke-linecap="round"/>
    <circle cx="185" cy="184" r="9" fill="#C8A660"/>
    <circle cx="1015" cy="184" r="9" fill="#C8A660"/>

    <path d="M200 162C245 135 294 129 351 130C413 130 463 140 500 162" stroke="#F2D2A3" stroke-opacity=".26" stroke-width="4" stroke-linecap="round"/>
    <path d="M1000 162C955 135 906 129 849 130C787 130 737 140 700 162" stroke="#F2D2A3" stroke-opacity=".26" stroke-width="4" stroke-linecap="round"/>
  </g>

  <g opacity=".62">
    <path d="M530 229L558 248" stroke="#B58C4C" stroke-width="5" stroke-linecap="round"/>
    <ellipse cx="565" cy="255" rx="13" ry="8" transform="rotate(28 565 255)" fill="#D7B879" fill-opacity=".52" stroke="#8D692F" stroke-width="2"/>
    <path d="M670 229L642 248" stroke="#B58C4C" stroke-width="5" stroke-linecap="round"/>
    <ellipse cx="635" cy="255" rx="13" ry="8" transform="rotate(-28 635 255)" fill="#D7B879" fill-opacity=".52" stroke="#8D692F" stroke-width="2"/>
  </g>
</svg>
