<svg xmlns="http://www.w3.org/2000/svg" width="800" height="280" viewBox="0 0 800 280">
  <defs>
    <linearGradient id="lens-l" x1="10%" y1="5%" x2="80%" y2="90%">
      <stop offset="0%"   stop-color="#26263a" stop-opacity="0.90"/>
      <stop offset="50%"  stop-color="#0c0c18" stop-opacity="0.97"/>
      <stop offset="100%" stop-color="#16162a" stop-opacity="0.88"/>
    </linearGradient>
    <linearGradient id="lens-r" x1="90%" y1="5%" x2="20%" y2="90%">
      <stop offset="0%"   stop-color="#26263a" stop-opacity="0.90"/>
      <stop offset="50%"  stop-color="#0c0c18" stop-opacity="0.97"/>
      <stop offset="100%" stop-color="#16162a" stop-opacity="0.88"/>
    </linearGradient>
    <linearGradient id="shine-l" x1="0%" y1="0%" x2="70%" y2="70%">
      <stop offset="0%"   stop-color="#fff" stop-opacity="0.16"/>
      <stop offset="30%"  stop-color="#fff" stop-opacity="0.04"/>
      <stop offset="100%" stop-color="#fff" stop-opacity="0"/>
    </linearGradient>
    <linearGradient id="shine-r" x1="100%" y1="0%" x2="30%" y2="70%">
      <stop offset="0%"   stop-color="#fff" stop-opacity="0.16"/>
      <stop offset="30%"  stop-color="#fff" stop-opacity="0.04"/>
      <stop offset="100%" stop-color="#fff" stop-opacity="0"/>
    </linearGradient>
    <linearGradient id="frm" x1="0%" y1="0%" x2="0%" y2="100%">
      <stop offset="0%"   stop-color="#404040"/>
      <stop offset="20%"  stop-color="#181818"/>
      <stop offset="65%"  stop-color="#0e0e0e"/>
      <stop offset="100%" stop-color="#282828"/>
    </linearGradient>
    <mask id="m">
      <rect width="800" height="280" fill="white"/>
      <path d="M140,78 L264,78 Q271,78 271,88 L268,174 Q267,184 256,184 L148,184 Q137,184 136,174 L134,88 Q133,78 140,78 Z" fill="black"/>
      <path d="M536,78 L660,78 Q667,78 666,88 L664,174 Q663,184 652,184 L544,184 Q533,184 532,174 L530,88 Q529,78 536,78 Z" fill="black"/>
    </mask>
  </defs>
  <!-- Lens fills with gradient -->
  <path d="M116,58 L272,58 Q288,58 288,74 L286,186 Q285,200 270,200 L136,200 Q120,200 118,186 L114,74 Q112,58 116,58 Z" fill="url(#lens-l)"/>
  <path d="M512,58 L668,58 Q684,58 685,74 L683,186 Q682,200 668,200 L534,200 Q518,200 516,186 L514,74 Q512,58 512,58 Z" fill="url(#lens-r)"/>
  <!-- Shine/reflection overlay -->
  <path d="M116,58 L272,58 Q288,58 288,74 L286,186 Q285,200 270,200 L136,200 Q120,200 118,186 L114,74 Q112,58 116,58 Z" fill="url(#shine-l)"/>
  <path d="M512,58 L668,58 Q684,58 685,74 L683,186 Q682,200 668,200 L534,200 Q518,200 516,186 L514,74 Q512,58 512,58 Z" fill="url(#shine-r)"/>
  <!-- Frame rim -->
  <g mask="url(#m)">
    <path d="M116,58 L272,58 Q288,58 288,74 L286,186 Q285,200 270,200 L136,200 Q120,200 118,186 L114,74 Q112,58 116,58 Z" fill="url(#frm)"/>
    <path d="M512,58 L668,58 Q684,58 685,74 L683,186 Q682,200 668,200 L534,200 Q518,200 516,186 L514,74 Q512,58 512,58 Z" fill="url(#frm)"/>
    <path d="M288,82 Q340,74 400,76 Q460,74 512,82 L512,96 Q460,88 400,90 Q340,88 288,96 Z" fill="url(#frm)"/>
    <path d="M116,88 L34,96 Q26,97 25,106 Q25,116 34,117 L115,108 Z" fill="url(#frm)"/>
    <path d="M685,88 L766,96 Q774,97 775,106 Q775,116 766,117 L686,108 Z" fill="url(#frm)"/>
    <rect x="108" y="80" width="16" height="22" rx="2" fill="url(#frm)"/>
    <rect x="676" y="80" width="16" height="22" rx="2" fill="url(#frm)"/>
  </g>
  <!-- Top edge highlight -->
</svg>
